<svg width="200" height="196" viewBox="0 0 200 196" fill="none" xmlns="http://www.w3.org/2000/svg">
<g clip-path="url(#clip0_33_66)">
<path d="M3.26636 0.486381H10.614C11.5372 0.480579 12.4582 0.575291 13.3609 0.768933C14.1735 0.932067 14.9477 1.24884 15.6415 1.70219C16.3033 2.15147 16.8395 2.7622 17.1992 3.47661C17.6099 4.3419 17.808 5.29267 17.7774 6.24998C17.8147 7.47309 17.4475 8.67436 16.7326 9.66749C15.983 10.6389 14.8844 11.28 13.6699 11.4551L18.5004 19.4729H13.4793L9.5361 11.8823H7.47239V19.4729H3.28625L3.26636 0.486381ZM7.45282 8.37282H9.91733C10.2919 8.37282 10.6927 8.37278 11.1133 8.33335C11.5022 8.31333 11.8857 8.23353 12.2503 8.09676C12.5867 7.95764 12.8795 7.73065 13.0981 7.43956C13.3412 7.08499 13.4594 6.65948 13.4334 6.23033C13.4554 5.82568 13.352 5.42409 13.1376 5.08022C12.9482 4.80061 12.6902 4.57431 12.3883 4.42302C12.0568 4.26373 11.7019 4.15934 11.337 4.11407C10.9558 4.0621 10.5716 4.03576 10.1869 4.03521H7.45282V8.37282Z" fill="white"/>
<path d="M20.965 9.97633C20.9453 8.56323 21.2066 7.16029 21.7338 5.84907C22.2102 4.65754 22.9361 3.58193 23.863 2.69455C24.8015 1.82556 25.906 1.15497 27.1099 0.722938C29.765 -0.205742 32.6567 -0.205742 35.3118 0.722938C36.5156 1.15497 37.6198 1.82556 38.5583 2.69455C39.4851 3.58338 40.2131 4.65847 40.6942 5.84907C41.7105 8.50899 41.7105 11.4502 40.6942 14.1102C40.2132 15.2989 39.4851 16.3718 38.5583 17.2581C37.6232 18.1315 36.518 18.8027 35.3118 19.2297C32.6567 20.1584 29.765 20.1584 27.1099 19.2297C25.9036 18.8027 24.7982 18.1315 23.863 17.2581C22.9362 16.3732 22.2103 15.2997 21.7338 14.1102C21.206 12.7968 20.9446 11.3916 20.965 9.97633V9.97633ZM25.309 9.97633C25.298 10.8144 25.4407 11.6475 25.7297 12.4343C25.9883 13.1517 26.3934 13.8075 26.9193 14.3599C27.4438 14.9127 28.08 15.3473 28.7856 15.6348C30.3442 16.2479 32.0771 16.2479 33.6357 15.6348C34.3422 15.3489 34.9787 14.9141 35.5021 14.3599C36.0277 13.8062 36.435 13.1509 36.6984 12.4343C37.2503 10.8489 37.2503 9.12352 36.6984 7.53813C36.4382 6.80627 36.031 6.13533 35.5021 5.56652C34.9752 5.01647 34.3397 4.5822 33.6357 4.29151C32.0755 3.68677 30.3458 3.68677 28.7856 4.29151C28.0774 4.58153 27.4387 5.01854 26.9119 5.57366C26.3851 6.12878 25.9823 6.7894 25.7297 7.51182C25.4397 8.30063 25.2971 9.136 25.309 9.97633Z" fill="white"/>
<path d="M50.2826 11.3762L43.1519 0.486359H48.3569L52.379 7.59068L56.6444 0.486359H61.6062L54.469 11.3762V19.4729H50.2826V11.3762Z" fill="white"/>
<path d="M73.6396 0.486351H80.9873C81.9105 0.480913 82.8314 0.575621 83.7342 0.768904C84.5464 0.933419 85.3203 1.25009 86.0148 1.70216C86.675 2.15317 87.2109 2.76347 87.5725 3.47658C87.9809 4.34243 88.1766 5.29318 88.144 6.24995C88.1812 7.47306 87.814 8.67433 87.0992 9.66746C86.3525 10.639 85.256 11.2804 84.0432 11.455L88.867 19.4729H83.8526L79.9094 11.8822H77.8457V19.4729H73.666L73.6396 0.486351ZM77.8194 8.37279H80.2906C80.6652 8.37279 81.0596 8.37275 81.4802 8.33332C81.8712 8.31324 82.2567 8.23346 82.6236 8.09673C82.9571 7.95578 83.2475 7.72903 83.465 7.43953C83.7081 7.08496 83.8259 6.65945 83.8 6.2303C83.8219 5.82565 83.7185 5.42406 83.5041 5.08019C83.3148 4.80058 83.057 4.57428 82.7551 4.42299C82.4264 4.26259 82.073 4.15813 81.71 4.11404C81.3266 4.06207 80.9403 4.03573 80.5534 4.03518H77.8194V8.37279Z" fill="white"/>
<path d="M91.3381 9.97631C91.3195 8.56391 91.5783 7.1616 92.1003 5.84905C92.5814 4.66006 93.307 3.5854 94.2298 2.69453C95.1692 1.82684 96.2732 1.15641 97.4763 0.722917C100.134 -0.205735 103.027 -0.205735 105.685 0.722917C106.888 1.15641 107.992 1.82684 108.931 2.69453C109.854 3.5854 110.58 4.66006 111.061 5.84905C112.077 8.50897 112.077 11.4502 111.061 14.1101C110.579 15.2971 109.854 16.3696 108.931 17.2581C107.995 18.1302 106.89 18.8012 105.685 19.2297C103.027 20.1583 100.134 20.1583 97.4763 19.2297C96.2708 18.8012 95.1659 18.1302 94.2298 17.2581C93.3072 16.3696 92.5815 15.2971 92.1003 14.1101C91.5778 12.7954 91.319 11.3909 91.3381 9.97631V9.97631ZM95.6822 9.97631C95.6723 10.8138 95.8124 11.6462 96.0961 12.4342C96.3572 13.152 96.7644 13.8078 97.2921 14.3599C97.8142 14.9125 98.4484 15.3472 99.1521 15.6348C100.713 16.2483 102.448 16.2483 104.009 15.6348C104.714 15.3493 105.348 14.9144 105.869 14.3599C106.397 13.8078 106.804 13.152 107.065 12.4342C107.617 10.8488 107.617 9.1235 107.065 7.53811C106.807 6.80503 106.4 6.13359 105.869 5.5665C105.344 5.01661 104.711 4.5823 104.009 4.29148C102.446 3.68695 100.715 3.68695 99.1521 4.29148C98.451 4.58398 97.8178 5.01807 97.2921 5.5665C96.7609 6.13359 96.3537 6.80503 96.0961 7.53811C95.8146 8.31987 95.6745 9.14544 95.6822 9.97631V9.97631Z" fill="white"/>
<path d="M133.202 18.1323C131.984 18.7712 130.683 19.24 129.338 19.5255C127.99 19.8133 126.615 19.9565 125.237 19.9527C123.837 19.9683 122.446 19.7323 121.129 19.2561C119.924 18.8275 118.819 18.1565 117.883 17.2845C116.96 16.396 116.235 15.3234 115.753 14.1364C114.737 11.4765 114.737 8.53534 115.753 5.87542C116.235 4.68643 116.96 3.61169 117.883 2.72082C118.822 1.85313 119.926 1.1827 121.129 0.749209C122.446 0.275829 123.837 0.0400017 125.237 0.0526151C126.653 0.0392356 128.065 0.225048 129.43 0.604643C130.686 0.959536 131.839 1.60834 132.794 2.49739L129.844 5.71112C129.293 5.1526 128.639 4.70622 127.918 4.39672C127.063 4.0697 126.152 3.91553 125.237 3.94321C124.404 3.93121 123.578 4.08541 122.805 4.39672C122.104 4.68922 121.471 5.12322 120.945 5.67165C120.414 6.23875 120.007 6.91019 119.749 7.64326C119.197 9.22865 119.197 10.9541 119.749 12.5395C120.01 13.2573 120.417 13.9129 120.945 14.465C121.467 15.0176 122.101 15.4524 122.805 15.74C123.576 16.0567 124.403 16.2132 125.237 16.2001C126.034 16.2139 126.829 16.1099 127.596 15.8912C128.143 15.7257 128.671 15.5055 129.173 15.234V12.1517H125.769V8.28739H133.202V18.1323Z" fill="white"/>
<path d="M138.348 0.486359H151.249V4.34414H142.534V7.88639H150.769V11.7507H142.534V15.6085H151.735V19.4729H138.348V0.486359Z" fill="white"/>
<path d="M156.447 0.486352H163.795C164.72 0.480903 165.644 0.575609 166.549 0.768904C167.361 0.933419 168.134 1.25009 168.829 1.70216C169.489 2.15163 170.023 2.76245 170.38 3.47658C170.795 4.34054 170.993 5.29229 170.958 6.24995C170.996 7.47306 170.628 8.67433 169.913 9.66746C169.167 10.639 168.07 11.2804 166.857 11.455L171.681 19.4729H166.667L162.723 11.8822H160.66V19.4729H156.474L156.447 0.486352ZM160.634 8.37279H163.098C163.479 8.37279 163.874 8.37275 164.294 8.33332C164.683 8.31393 165.067 8.23412 165.431 8.09673C165.768 7.95761 166.06 7.73062 166.279 7.43953C166.522 7.08496 166.64 6.65945 166.614 6.2303C166.636 5.82565 166.533 5.42406 166.318 5.08019C166.129 4.80058 165.871 4.57428 165.569 4.42299C165.24 4.26259 164.887 4.15814 164.524 4.11405C164.141 4.06228 163.754 4.03594 163.367 4.03518H160.634V8.37279Z" fill="white"/>
<path d="M177.714 8.05069H174.284L176.255 0.486359H180.12L177.714 8.05069Z" fill="white"/>
<path d="M193.836 5.13277C193.475 4.69052 192.997 4.36001 192.455 4.17986C191.927 3.98496 191.369 3.88048 190.806 3.87092C190.489 3.87086 190.174 3.90615 189.866 3.97609C189.548 4.04726 189.241 4.15996 188.952 4.31127C188.678 4.45804 188.44 4.66471 188.256 4.91593C188.072 5.18444 187.978 5.50416 187.986 5.82945C187.976 6.08626 188.03 6.34155 188.145 6.57145C188.26 6.80135 188.432 6.99831 188.643 7.14385C189.143 7.4822 189.69 7.74358 190.267 7.91931C190.924 8.13619 191.621 8.34649 192.37 8.57651C193.11 8.78703 193.82 9.09418 194.48 9.49003C195.133 9.88639 195.687 10.4285 196.096 11.0739C196.565 11.8681 196.793 12.7813 196.754 13.7027C196.775 14.6564 196.572 15.6018 196.162 16.4629C195.787 17.2334 195.241 17.9079 194.565 18.4346C193.872 18.9673 193.082 19.3601 192.238 19.5912C190.187 20.1474 188.017 20.0833 186.001 19.4072C184.904 19.0042 183.901 18.3826 183.051 17.5802L186.028 14.2941C186.453 14.8587 187.011 15.3101 187.651 15.6086C188.281 15.9187 188.973 16.0806 189.675 16.0818C190.023 16.0821 190.37 16.0401 190.707 15.9569C191.037 15.8865 191.355 15.7646 191.647 15.5955C191.911 15.4431 192.136 15.2316 192.304 14.9777C192.479 14.7177 192.568 14.41 192.561 14.097C192.571 13.8347 192.516 13.574 192.401 13.3379C192.287 13.1017 192.116 12.8974 191.903 12.7432C191.4 12.3775 190.844 12.0916 190.254 11.8954C189.596 11.6654 188.874 11.4288 188.111 11.1987C187.359 10.9749 186.637 10.6593 185.962 10.259C185.305 9.87034 184.741 9.34055 184.313 8.70792C183.841 7.94372 183.612 7.05487 183.655 6.15805C183.636 5.22839 183.843 4.30794 184.26 3.47661C184.649 2.72282 185.199 2.06339 185.87 1.54447C186.563 1.01294 187.35 0.618148 188.19 0.38121C189.068 0.117543 189.981 -0.0153075 190.898 -0.0130954C191.951 -0.0137726 192.998 0.141218 194.006 0.446915C195.01 0.750714 195.934 1.27118 196.714 1.97159L193.836 5.13277Z" fill="white"/>
<path d="M6.99936 179.002H9.95004L16.9954 195.202H12.9668L11.5735 191.765H5.28383L3.93028 195.202H-0.0129395L6.99936 179.002ZM8.37282 183.714L6.40121 188.749H10.3444L8.37282 183.714Z" fill="white"/>
<path d="M22.0229 179.002H26.873L33.7541 190.26H33.8V179.002H37.3687V195.202H32.7025L25.6376 183.669H25.5917V195.202H22.0229V179.002Z" fill="white"/>
<path d="M44.1182 179.002H48.9682L55.8557 190.26H55.9016V179.002H59.4835V195.202H54.8173L47.7459 183.669H47.6997V195.202H44.1313L44.1182 179.002Z" fill="white"/>
<path d="M66.1475 179.002H69.7159V195.202H66.1475V179.002Z" fill="white"/>
<path d="M74.7898 179.002H78.8646L82.8668 189.616H82.9127L86.9808 179.002H90.8059L84.1222 195.202H81.2633L74.7898 179.002Z" fill="white"/>
<path d="M96.0634 179.002H107.065V182.288H99.6318V185.305H106.657V188.591H99.6318V191.877H107.459V195.163H96.0435L96.0634 179.002Z" fill="white"/>
<path d="M113.768 179.002H120.038C120.824 179.001 121.609 179.082 122.378 179.246C123.081 179.382 123.751 179.654 124.349 180.047C124.91 180.43 125.363 180.95 125.664 181.559C126.016 182.296 126.185 183.108 126.157 183.925C126.189 184.969 125.874 185.995 125.263 186.843C124.617 187.671 123.674 188.216 122.634 188.361L126.755 195.202H122.476L119.092 188.729H117.317V195.202H113.749L113.768 179.002ZM117.337 185.706H119.44C119.762 185.706 120.097 185.706 120.459 185.706C120.791 185.69 121.12 185.621 121.431 185.502C121.715 185.389 121.965 185.203 122.154 184.963C122.361 184.661 122.461 184.297 122.437 183.931C122.461 183.614 122.389 183.296 122.229 183.021C122.07 182.745 121.831 182.524 121.543 182.387C121.263 182.253 120.964 182.164 120.656 182.124C120.329 182.08 120 182.058 119.67 182.058H117.317L117.337 185.706Z" fill="white"/>
<path d="M140.023 182.965C139.718 182.586 139.31 182.302 138.847 182.15C138.397 181.982 137.921 181.893 137.441 181.887C137.171 181.89 136.902 181.921 136.639 181.979C136.369 182.04 136.109 182.135 135.864 182.262C135.628 182.386 135.425 182.564 135.272 182.781C135.112 183.008 135.032 183.28 135.042 183.557C135.033 183.775 135.078 183.991 135.173 184.188C135.268 184.384 135.41 184.553 135.587 184.681C136.016 184.965 136.483 185.187 136.974 185.338C137.533 185.515 138.124 185.699 138.768 185.883C139.398 186.061 140.001 186.322 140.563 186.659C141.121 186.999 141.595 187.462 141.949 188.013C142.343 188.699 142.533 189.483 142.495 190.273C142.515 191.088 142.343 191.896 141.995 192.633C141.675 193.286 141.21 193.857 140.635 194.302C140.045 194.751 139.376 195.086 138.663 195.288C137.884 195.501 137.079 195.608 136.271 195.603C135.276 195.613 134.286 195.451 133.346 195.124C132.41 194.785 131.553 194.257 130.829 193.573L133.366 190.779C133.728 191.264 134.205 191.653 134.753 191.91C135.29 192.175 135.882 192.312 136.481 192.311C136.778 192.311 137.074 192.275 137.362 192.206C137.641 192.145 137.91 192.04 138.157 191.897C138.386 191.768 138.582 191.588 138.729 191.371C138.875 191.149 138.951 190.888 138.946 190.622C138.955 190.398 138.909 190.175 138.811 189.973C138.714 189.772 138.568 189.597 138.387 189.465C137.959 189.153 137.484 188.909 136.981 188.742C136.415 188.545 135.804 188.348 135.154 188.151C134.512 187.959 133.896 187.69 133.32 187.349C132.761 187.019 132.281 186.57 131.914 186.034C131.512 185.383 131.317 184.624 131.355 183.859C131.331 183.099 131.491 182.344 131.819 181.658C132.147 180.972 132.635 180.375 133.241 179.916C133.83 179.462 134.499 179.123 135.213 178.917C135.965 178.698 136.743 178.588 137.526 178.588C138.417 178.589 139.302 178.72 140.155 178.976C141.011 179.244 141.8 179.692 142.468 180.291L140.023 182.965Z" fill="white"/>
<path d="M153.91 179.002H156.861L163.906 195.202H159.878L158.485 191.765H152.195L150.88 195.202H146.937L153.91 179.002ZM155.284 183.714L153.312 188.749H157.255L155.284 183.714Z" fill="white"/>
<path d="M168.96 179.002H175.23C176.016 179.001 176.801 179.082 177.57 179.246C178.273 179.381 178.943 179.653 179.541 180.047C180.102 180.43 180.555 180.95 180.856 181.559C181.208 182.296 181.377 183.108 181.349 183.925C181.381 184.969 181.066 185.995 180.455 186.843C179.809 187.671 178.866 188.216 177.826 188.361L181.947 195.202H177.668L174.284 188.729H172.522V195.202H168.954L168.96 179.002ZM172.529 185.706H174.632C174.954 185.706 175.289 185.706 175.65 185.706C175.983 185.69 176.312 185.621 176.623 185.502C176.908 185.389 177.157 185.203 177.346 184.963C177.553 184.661 177.653 184.297 177.629 183.931C177.653 183.614 177.581 183.296 177.421 183.021C177.262 182.745 177.023 182.524 176.735 182.387C176.455 182.253 176.156 182.164 175.848 182.124C175.521 182.08 175.192 182.058 174.862 182.058H172.522L172.529 185.706Z" fill="white"/>
<path d="M190.346 188.295L184.26 179.002H188.703L192.133 185.068L195.768 179.002H200L193.914 188.295V195.202H190.346V188.295Z" fill="white"/>
<path d="M62.6115 67.1399H8.2937V45.7282H88.683V66.2132L44.762 155.593H17.6062L62.6115 67.1399Z" fill="white"/>
<path d="M99.5728 100.664C99.5845 94.002 100.18 87.3542 101.354 80.7965C102.437 74.3799 104.59 68.1907 107.722 62.4869C110.725 57.0584 115.012 52.4484 120.209 49.0602C125.466 45.5989 132.192 43.8661 140.385 43.8618C148.578 43.8574 155.303 45.5901 160.561 49.0602C165.757 52.4488 170.045 57.0587 173.048 62.4869C176.175 68.1923 178.326 74.3811 179.41 80.7965C181.793 93.9319 181.793 107.389 179.41 120.524C178.328 126.943 176.177 133.134 173.048 138.841C170.046 144.268 165.759 148.876 160.561 152.261C155.303 155.731 148.578 157.464 140.385 157.459C132.192 157.455 125.466 155.722 120.209 152.261C115.011 148.877 110.723 144.269 107.722 138.841C104.588 133.135 102.435 126.944 101.354 120.524C100.18 113.969 99.5842 107.323 99.5728 100.664V100.664ZM122.851 100.664C122.851 103.564 122.98 107.03 123.238 111.061C123.478 115.009 124.182 118.916 125.335 122.7C126.348 126.2 128.123 129.432 130.533 132.164C132.86 134.753 136.146 136.048 140.392 136.048C144.532 136.048 147.792 134.753 150.171 132.164C152.615 129.446 154.413 126.211 155.429 122.7C156.575 118.914 157.279 115.009 157.525 111.061C157.784 107.026 157.913 103.56 157.913 100.664C157.913 97.7677 157.784 94.3021 157.525 90.2669C157.279 86.3191 156.576 82.4131 155.429 78.6277C154.41 75.1158 152.613 71.8788 150.171 69.1575C147.792 66.5769 144.532 65.2844 140.392 65.28C136.146 65.28 132.86 66.5725 130.533 69.1575C128.124 71.893 126.35 75.1267 125.335 78.6277C124.182 82.4116 123.478 86.3183 123.238 90.2669C122.958 94.3021 122.82 97.7677 122.825 100.664H122.851Z" fill="white"/>
<path d="M175.04 46.0371H171.865V43.8486H180.731V46.0371H177.53V55.0802H175.059L175.04 46.0371Z" fill="white"/>
<path d="M181.96 43.8486H184.431V48.0284H189.228V43.8486H191.7V55.0802H189.228V50.2366H184.431V55.0802H181.96V43.8486Z" fill="white"/>
</g>
<defs>
<clipPath id="clip0_33_66">
<rect width="200" height="195.61" fill="white"/>
</clipPath>
</defs>
</svg>
