<svg width="150" height="147" viewBox="0 0 150 147" fill="none" xmlns="http://www.w3.org/2000/svg">
<g clip-path="url(#clip0_33_66)">
<path d="M2.44971 0.364782H7.96044C8.65288 0.36043 9.34357 0.431465 10.0206 0.576696C10.6301 0.699046 11.2107 0.936626 11.7311 1.27664C12.2274 1.6136 12.6295 2.07165 12.8993 2.60745C13.2073 3.25642 13.356 3.9695 13.333 4.68748C13.361 5.60481 13.0856 6.50577 12.5494 7.25061C11.9872 7.97914 11.1632 8.46002 10.2524 8.59129L13.8753 14.6047H10.1094L7.15201 8.91169H5.60423V14.6047H2.46463L2.44971 0.364782ZM5.58955 6.27961H7.43794C7.71889 6.27961 8.01947 6.27958 8.33493 6.25001C8.6266 6.23499 8.9142 6.17515 9.18764 6.07257C9.43994 5.96823 9.65957 5.79799 9.8235 5.57967C10.0059 5.31374 10.0945 4.9946 10.075 4.67274C10.0915 4.36925 10.0139 4.06806 9.85311 3.81016C9.71111 3.60045 9.51755 3.43073 9.29113 3.31726C9.04255 3.19779 8.77638 3.1195 8.50268 3.08555C8.2168 3.04657 7.92863 3.02681 7.6401 3.02641H5.58955V6.27961Z" fill="white"/>
<path d="M15.7237 7.48225C15.709 6.42242 15.905 5.37022 16.3004 4.3868C16.6576 3.49316 17.2021 2.68645 17.8973 2.02091C18.6011 1.36917 19.4295 0.866226 20.3324 0.542204C22.3237 -0.154306 24.4925 -0.154306 26.4838 0.542204C27.3867 0.866226 28.2149 1.36917 28.9187 2.02091C29.6138 2.68754 30.1598 3.49385 30.5207 4.3868C31.2828 6.38174 31.2828 8.58768 30.5207 10.5826C30.1599 11.4742 29.6138 12.2789 28.9187 12.9436C28.2174 13.5986 27.3885 14.102 26.4838 14.4223C24.4925 15.1188 22.3237 15.1188 20.3324 14.4223C19.4277 14.102 18.5986 13.5986 17.8973 12.9436C17.2022 12.2799 16.6577 11.4748 16.3004 10.5826C15.9045 9.59763 15.7085 8.54371 15.7237 7.48225V7.48225ZM18.9817 7.48225C18.9735 8.11083 19.0805 8.73561 19.2973 9.32569C19.4912 9.8638 19.7951 10.3557 20.1894 10.7699C20.5828 11.1845 21.06 11.5105 21.5892 11.7261C22.7582 12.186 24.0578 12.186 25.2268 11.7261C25.7567 11.5117 26.2341 11.1856 26.6265 10.7699C27.0208 10.3546 27.3262 9.86316 27.5238 9.32569C27.9377 8.13665 27.9377 6.84264 27.5238 5.6536C27.3287 5.1047 27.0232 4.6015 26.6265 4.17489C26.2314 3.76235 25.7548 3.43665 25.2268 3.21863C24.0566 2.76508 22.7593 2.76508 21.5892 3.21863C21.0581 3.43614 20.579 3.7639 20.1839 4.18025C19.7888 4.59659 19.4867 5.09205 19.2973 5.63386C19.0798 6.22547 18.9728 6.852 18.9817 7.48225Z" fill="white"/>
<path d="M37.7121 8.53214L32.364 0.364777H36.2678L39.2844 5.69302L42.4834 0.364777H46.2047L40.8519 8.53214V14.6047H37.7121V8.53214Z" fill="white"/>
<path d="M55.2297 0.36476H60.7405C61.4329 0.360681 62.1236 0.431712 62.8006 0.576674C63.4098 0.70006 63.9902 0.937562 64.5111 1.27662C65.0063 1.61488 65.4081 2.0726 65.6794 2.60743C65.9857 3.25682 66.1325 3.96988 66.108 4.68746C66.1359 5.60479 65.8605 6.50575 65.3244 7.25059C64.7644 7.97922 63.942 8.46028 63.0324 8.59127L66.6502 14.6047H62.8895L59.932 8.91167H58.3843V14.6047H55.2495L55.2297 0.36476ZM58.3645 6.27959H60.218C60.4989 6.27959 60.7947 6.27956 61.1101 6.24998C61.4034 6.23493 61.6925 6.17509 61.9677 6.07255C62.2178 5.96683 62.4356 5.79677 62.5987 5.57964C62.7811 5.31372 62.8694 4.99458 62.85 4.67272C62.8665 4.36923 62.7889 4.06804 62.6281 3.81014C62.4861 3.60043 62.2928 3.43071 62.0663 3.31724C61.8198 3.19694 61.5548 3.1186 61.2825 3.08553C60.9949 3.04655 60.7052 3.02679 60.4151 3.02638H58.3645V6.27959Z" fill="white"/>
<path d="M68.5037 7.48223C68.4897 6.42293 68.6838 5.3712 69.0753 4.38679C69.4361 3.49505 69.9803 2.68905 70.6724 2.02089C71.377 1.37013 72.2049 0.867307 73.1073 0.542188C75.1003 -0.154301 77.2705 -0.154301 79.2635 0.542188C80.1659 0.867307 80.9941 1.37013 81.6987 2.02089C82.3908 2.68905 82.9347 3.49505 83.2956 4.38679C84.0577 6.38173 84.0577 8.58766 83.2956 10.5826C82.9346 11.4729 82.3906 12.2772 81.6987 12.9436C80.9966 13.5976 80.1677 14.1009 79.2635 14.4223C77.2705 15.1188 75.1003 15.1188 73.1073 14.4223C72.2032 14.1009 71.3745 13.5976 70.6724 12.9436C69.9804 12.2772 69.4362 11.4729 69.0753 10.5826C68.6834 9.59659 68.4893 8.54316 68.5037 7.48223V7.48223ZM71.7617 7.48223C71.7543 8.11033 71.8594 8.73467 72.0722 9.32568C72.2679 9.86402 72.5733 10.3558 72.9692 10.7699C73.3607 11.1844 73.8363 11.5104 74.3641 11.7261C75.5347 12.1863 76.8361 12.1863 78.0067 11.7261C78.5354 11.512 79.0113 11.1858 79.4017 10.7699C79.7975 10.3558 80.1029 9.86402 80.2987 9.32568C80.7126 8.13663 80.7126 6.84263 80.2987 5.65358C80.1055 5.10378 79.8001 4.6002 79.4017 4.17487C79.0084 3.76246 78.5332 3.43672 78.0067 3.21861C76.8349 2.76521 75.536 2.76521 74.3641 3.21861C73.8383 3.43799 73.3634 3.76355 72.9692 4.17487C72.5708 4.6002 72.2653 5.10378 72.0722 5.65358C71.861 6.2399 71.7559 6.85908 71.7617 7.48223V7.48223Z" fill="white"/>
<path d="M99.9015 13.5992C98.9877 14.0784 98.0126 14.43 97.0033 14.6442C95.9924 14.8599 94.9612 14.9674 93.9275 14.9646C92.8776 14.9762 91.8342 14.7992 90.8468 14.442C89.9427 14.1206 89.114 13.6174 88.4119 12.9633C87.72 12.297 87.176 11.4926 86.815 10.6023C86.0529 8.60738 86.0529 6.40151 86.815 4.40657C87.1759 3.51483 87.7198 2.70877 88.4119 2.04061C89.1165 1.38985 89.9445 0.887026 90.8468 0.561906C91.8347 0.206872 92.8778 0.0300013 93.9275 0.0394614C94.9899 0.0294267 96.0487 0.168786 97.0724 0.453482C98.0143 0.719652 98.8792 1.20626 99.5958 1.87304L97.3828 4.28334C96.9697 3.86445 96.4792 3.52967 95.9386 3.29754C95.2973 3.05228 94.6137 2.93665 93.9275 2.9574C93.303 2.94841 92.6831 3.06406 92.1039 3.29754C91.5781 3.51691 91.1032 3.84242 90.7089 4.25374C90.3105 4.67906 90.0051 5.18264 89.8119 5.73245C89.398 6.92149 89.398 8.21556 89.8119 9.4046C90.0077 9.94294 90.3131 10.4347 90.7089 10.8488C91.1005 11.2632 91.5761 11.5893 92.1039 11.805C92.6821 12.0425 93.3025 12.1599 93.9275 12.15C94.5255 12.1605 95.122 12.0824 95.6972 11.9184C96.107 11.7943 96.5033 11.6292 96.8801 11.4255V9.11381H94.3268V6.21554H99.9015V13.5992Z" fill="white"/>
<path d="M103.761 0.364777H113.436V3.25811H106.901V5.9148H113.077V8.81307H106.901V11.7064H113.801V14.6047H103.761V0.364777Z" fill="white"/>
<path d="M117.335 0.36476H122.846C123.54 0.360673 124.233 0.431703 124.911 0.576675C125.521 0.700061 126.101 0.937563 126.622 1.27662C127.117 1.61372 127.517 2.07184 127.785 2.60743C128.096 3.2554 128.245 3.96921 128.219 4.68746C128.247 5.60479 127.971 6.50575 127.435 7.25059C126.875 7.97922 126.053 8.46028 125.143 8.59127L128.761 14.6047H125L122.043 8.91167H120.495V14.6047H117.355L117.335 0.36476ZM120.475 6.27959H122.324C122.61 6.27959 122.905 6.27956 123.221 6.24998C123.512 6.23544 123.8 6.17558 124.073 6.07255C124.326 5.9682 124.545 5.79796 124.709 5.57964C124.892 5.31372 124.98 4.99458 124.961 4.67272C124.977 4.36923 124.9 4.06804 124.739 3.81014C124.597 3.60043 124.403 3.43071 124.177 3.31724C123.93 3.19694 123.666 3.1186 123.393 3.08553C123.106 3.04671 122.816 3.02695 122.526 3.02638H120.475V6.27959Z" fill="white"/>
<path d="M133.286 6.03803H130.713L132.192 0.364777H135.09L133.286 6.03803Z" fill="white"/>
<path d="M145.377 3.84958C145.107 3.51789 144.747 3.27001 144.342 3.1349C143.945 2.98872 143.527 2.91036 143.104 2.90319C142.867 2.90314 142.631 2.92961 142.4 2.98207C142.161 3.03545 141.931 3.11997 141.714 3.23345C141.508 3.34353 141.33 3.49853 141.192 3.68695C141.054 3.88833 140.983 4.12812 140.99 4.37209C140.982 4.56469 141.023 4.75616 141.109 4.92859C141.195 5.10101 141.324 5.24874 141.483 5.35789C141.857 5.61165 142.267 5.80768 142.7 5.93948C143.193 6.10214 143.716 6.25987 144.278 6.43238C144.833 6.59027 145.365 6.82064 145.86 7.11753C146.35 7.41479 146.765 7.82135 147.072 8.30544C147.424 8.90109 147.595 9.58599 147.565 10.277C147.581 10.9923 147.429 11.7013 147.122 12.3472C146.84 12.9251 146.431 13.4309 145.924 13.8259C145.404 14.2255 144.811 14.5201 144.179 14.6934C142.64 15.1105 141.012 15.0625 139.501 14.5554C138.678 14.2531 137.925 13.7869 137.288 13.1851L139.521 10.7206C139.84 11.144 140.258 11.4826 140.738 11.7064C141.211 11.939 141.73 12.0604 142.257 12.0613C142.517 12.0615 142.777 12.0301 143.03 11.9677C143.278 11.9149 143.516 11.8234 143.735 11.6966C143.933 11.5823 144.102 11.4237 144.228 11.2332C144.359 11.0383 144.426 10.8075 144.42 10.5728C144.428 10.3761 144.387 10.1805 144.301 10.0034C144.215 9.82629 144.087 9.67307 143.928 9.55737C143.55 9.28312 143.133 9.0687 142.69 8.92156C142.197 8.74905 141.655 8.57158 141.084 8.39906C140.519 8.23119 139.978 7.99449 139.472 7.69424C138.978 7.40276 138.556 7.00541 138.234 6.53094C137.881 5.95779 137.709 5.29116 137.742 4.61854C137.727 3.92129 137.883 3.23096 138.195 2.60746C138.487 2.04212 138.899 1.54754 139.403 1.15835C139.922 0.759708 140.512 0.463611 141.142 0.285908C141.801 0.0881572 142.486 -0.0114806 143.173 -0.00982154C143.963 -0.0103294 144.749 0.105914 145.505 0.335186C146.257 0.563035 146.951 0.953387 147.536 1.47869L145.377 3.84958Z" fill="white"/>
<path d="M5.24946 134.252H7.46247L12.7465 146.402H9.72505L8.68004 143.824H3.96281L2.94765 146.402H-0.00976562L5.24946 134.252ZM6.27955 137.786L4.80084 141.562H7.75826L6.27955 137.786Z" fill="white"/>
<path d="M16.5171 134.252H20.1547L25.3154 142.695H25.3499V134.252H28.0264V146.402H24.5267L19.2281 137.751H19.1936V146.402H16.5171V134.252Z" fill="white"/>
<path d="M33.0886 134.252H36.7262L41.8918 142.695H41.9262V134.252H44.6126V146.402H41.113L35.8095 137.751H35.7748V146.402H33.0985L33.0886 134.252Z" fill="white"/>
<path d="M49.6106 134.252H52.2869V146.402H49.6106V134.252Z" fill="white"/>
<path d="M56.0923 134.252H59.1484L62.1501 142.212H62.1845L65.2355 134.252H68.1044L63.0916 146.402H60.9474L56.0923 134.252Z" fill="white"/>
<path d="M72.0476 134.252H80.2987V136.716H74.7239V138.979H79.993V141.443H74.7239V143.908H80.5945V146.372H72.0327L72.0476 134.252Z" fill="white"/>
<path d="M85.3264 134.252H90.0288C90.6184 134.251 91.2066 134.312 91.7835 134.434C92.3109 134.536 92.8132 134.741 93.2622 135.036C93.6829 135.322 94.0225 135.713 94.248 136.169C94.512 136.722 94.6388 137.331 94.6177 137.944C94.6417 138.727 94.4059 139.496 93.9472 140.132C93.4629 140.753 92.7558 141.162 91.9756 141.271L95.0661 146.402H91.8574L89.319 141.547H87.9881V146.402H85.3115L85.3264 134.252ZM88.0027 139.279H89.5801C89.8217 139.279 90.0729 139.279 90.344 139.279C90.5937 139.267 90.84 139.216 91.0735 139.127C91.2867 139.042 91.4738 138.903 91.6158 138.722C91.7711 138.495 91.8458 138.223 91.8278 137.949C91.8461 137.71 91.7917 137.472 91.6721 137.265C91.5524 137.059 91.3731 136.893 91.1575 136.79C90.9476 136.69 90.7229 136.623 90.4921 136.593C90.247 136.56 90 136.543 89.7527 136.544H87.9881L88.0027 139.279Z" fill="white"/>
<path d="M105.018 137.224C104.789 136.939 104.482 136.727 104.135 136.613C103.798 136.487 103.441 136.42 103.081 136.416C102.878 136.417 102.677 136.441 102.479 136.485C102.277 136.53 102.082 136.601 101.898 136.697C101.721 136.789 101.569 136.923 101.454 137.086C101.334 137.256 101.274 137.46 101.282 137.668C101.275 137.831 101.308 137.994 101.38 138.141C101.451 138.288 101.558 138.415 101.691 138.51C102.012 138.724 102.362 138.89 102.731 139.003C103.15 139.136 103.593 139.274 104.076 139.412C104.549 139.546 105.001 139.742 105.422 139.994C105.841 140.249 106.197 140.597 106.462 141.009C106.758 141.524 106.9 142.112 106.871 142.705C106.886 143.316 106.758 143.922 106.496 144.475C106.256 144.964 105.907 145.393 105.476 145.727C105.034 146.063 104.532 146.314 103.997 146.466C103.413 146.626 102.809 146.706 102.203 146.702C101.457 146.71 100.715 146.588 100.01 146.343C99.3072 146.089 98.6645 145.693 98.1221 145.179L100.025 143.085C100.296 143.448 100.654 143.739 101.065 143.932C101.468 144.131 101.912 144.234 102.361 144.233C102.584 144.233 102.805 144.207 103.021 144.154C103.231 144.109 103.432 144.03 103.618 143.923C103.789 143.826 103.936 143.691 104.047 143.528C104.157 143.362 104.213 143.166 104.209 142.966C104.216 142.798 104.182 142.631 104.109 142.48C104.036 142.329 103.926 142.198 103.79 142.099C103.469 141.865 103.113 141.682 102.736 141.557C102.312 141.409 101.853 141.261 101.365 141.113C100.884 140.969 100.422 140.767 99.9902 140.512C99.5709 140.264 99.2108 139.927 98.9353 139.526C98.6338 139.037 98.4877 138.468 98.5163 137.894C98.4986 137.324 98.6179 136.758 98.8641 136.244C99.1102 135.729 99.476 135.281 99.931 134.937C100.372 134.596 100.874 134.342 101.41 134.188C101.973 134.024 102.558 133.941 103.145 133.941C103.813 133.942 104.477 134.04 105.116 134.232C105.758 134.433 106.35 134.769 106.851 135.218L105.018 137.224Z" fill="white"/>
<path d="M115.433 134.252H117.646L122.93 146.402H119.908L118.863 143.824H114.146L113.16 146.402H110.203L115.433 134.252ZM116.463 137.786L114.984 141.562H117.942L116.463 137.786Z" fill="white"/>
<path d="M126.72 134.252H131.423C132.012 134.251 132.601 134.312 133.177 134.434C133.705 134.535 134.208 134.74 134.656 135.036C135.077 135.322 135.416 135.713 135.642 136.169C135.906 136.722 136.033 137.331 136.012 137.944C136.036 138.727 135.8 139.496 135.341 140.132C134.857 140.753 134.15 141.162 133.37 141.271L136.46 146.402H133.251L130.713 141.547H129.392V146.402H126.715L126.72 134.252ZM129.397 139.279H130.974C131.216 139.279 131.467 139.279 131.738 139.279C131.988 139.267 132.234 139.216 132.468 139.127C132.681 139.042 132.868 138.903 133.01 138.722C133.165 138.495 133.24 138.223 133.222 137.949C133.24 137.71 133.186 137.472 133.066 137.265C132.946 137.059 132.767 136.893 132.551 136.79C132.342 136.69 132.117 136.623 131.886 136.593C131.641 136.56 131.394 136.543 131.147 136.544H129.392L129.397 139.279Z" fill="white"/>
<path d="M142.759 141.221L138.195 134.252H141.527L144.1 138.801L146.826 134.252H150L145.436 141.221V146.402H142.759V141.221Z" fill="white"/>
<path d="M46.9588 50.3549H6.22046V34.2961H66.5124V49.6599L33.5717 116.695H13.2048L46.9588 50.3549Z" fill="white"/>
<path d="M74.6797 75.4978C74.6885 70.5015 75.1355 65.5156 76.0154 60.5974C76.8278 55.7849 78.4423 51.143 80.7916 46.8651C83.0437 42.7938 86.2592 39.3363 90.1568 36.7951C94.1 34.1992 99.1441 32.8996 105.289 32.8963C111.434 32.893 116.478 34.1926 120.421 36.7951C124.318 39.3366 127.534 42.794 129.786 46.8651C132.132 51.1442 133.745 55.7858 134.557 60.5974C136.345 70.4489 136.345 80.5418 134.557 90.3933C133.746 95.2069 132.133 99.8503 129.786 104.13C127.535 108.201 124.319 111.657 120.421 114.196C116.478 116.798 111.434 118.098 105.289 118.094C99.1441 118.091 94.1 116.792 90.1568 114.196C86.2583 111.658 83.0424 108.201 80.7916 104.13C78.4408 99.8515 76.8262 95.2077 76.0154 90.3933C75.1352 85.4768 74.6883 80.4925 74.6797 75.4978V75.4978ZM92.1382 75.4978C92.1382 77.6732 92.2351 80.2724 92.429 83.2956C92.6088 86.2569 93.1368 89.1868 94.0016 92.0248C94.7611 94.6496 96.0925 97.0736 97.9002 99.1226C99.6451 101.065 102.11 102.036 105.294 102.036C108.399 102.036 110.844 101.065 112.628 99.1226C114.462 97.0847 115.81 94.6581 116.572 92.0248C117.432 89.1857 117.959 86.2564 118.144 83.2956C118.338 80.2691 118.435 77.6699 118.435 75.4978C118.435 73.3258 118.338 70.7265 118.144 67.7001C117.96 64.7393 117.432 61.8098 116.572 58.9708C115.808 56.3369 114.46 53.9091 112.628 51.8681C110.844 49.9326 108.399 48.9633 105.294 48.96C102.11 48.96 99.6451 49.9294 97.9002 51.8681C96.0935 53.9197 94.7623 56.345 94.0016 58.9708C93.1363 61.8087 92.6084 64.7387 92.429 67.7001C92.2187 70.7265 92.1152 73.3258 92.1185 75.4978H92.1382Z" fill="white"/>
<path d="M131.28 34.5278H128.899V32.8864H135.548V34.5278H133.148V41.3101H131.294L131.28 34.5278Z" fill="white"/>
<path d="M136.47 32.8864H138.323V36.0213H141.921V32.8864H143.775V41.3101H141.921V37.6774H138.323V41.3101H136.47V32.8864Z" fill="white"/>
</g>
<defs>
<clipPath id="clip0_33_66">
<rect width="150" height="146.707" fill="white"/>
</clipPath>
</defs>
</svg>
