<svg width="390" height="68" viewBox="0 0 390 68" fill="none" xmlns="http://www.w3.org/2000/svg">
<path d="M25.1186 39V28.8182H28.7479C29.5367 28.8182 30.1913 28.9541 30.7116 29.2259C31.2353 29.4976 31.6264 29.8738 31.8849 30.3544C32.1435 30.8317 32.2727 31.3835 32.2727 32.0099C32.2727 32.633 32.1418 33.1816 31.88 33.6555C31.6214 34.1262 31.2304 34.4924 30.7067 34.7543C30.1863 35.0161 29.5317 35.147 28.7429 35.147H25.9936V33.8246H28.6037C29.1009 33.8246 29.5052 33.7533 29.8168 33.6108C30.1316 33.4683 30.362 33.2611 30.5078 32.9893C30.6536 32.7176 30.7266 32.3911 30.7266 32.0099C30.7266 31.6255 30.652 31.2924 30.5028 31.0107C30.357 30.7289 30.1267 30.5135 29.8118 30.3643C29.5002 30.2119 29.0909 30.1357 28.5838 30.1357H26.6548V39H25.1186ZM30.1449 34.4062L32.6605 39H30.9105L28.4446 34.4062H30.1449ZM42.9865 33.9091C42.9865 34.9962 42.7876 35.9309 42.3899 36.7131C41.9922 37.492 41.447 38.0919 40.7543 38.5128C40.0649 38.9304 39.281 39.1392 38.4027 39.1392C37.5211 39.1392 36.7339 38.9304 36.0412 38.5128C35.3518 38.0919 34.8082 37.4903 34.4105 36.7081C34.0128 35.9259 33.8139 34.9929 33.8139 33.9091C33.8139 32.822 34.0128 31.889 34.4105 31.1101C34.8082 30.3279 35.3518 29.728 36.0412 29.3104C36.7339 28.8894 37.5211 28.679 38.4027 28.679C39.281 28.679 40.0649 28.8894 40.7543 29.3104C41.447 29.728 41.9922 30.3279 42.3899 31.1101C42.7876 31.889 42.9865 32.822 42.9865 33.9091ZM41.4652 33.9091C41.4652 33.0805 41.331 32.3828 41.0625 31.8161C40.7973 31.246 40.4328 30.8151 39.9688 30.5234C39.508 30.2285 38.986 30.081 38.4027 30.081C37.8161 30.081 37.2924 30.2285 36.8317 30.5234C36.371 30.8151 36.0064 31.246 35.7379 31.8161C35.4728 32.3828 35.3402 33.0805 35.3402 33.9091C35.3402 34.7377 35.4728 35.437 35.7379 36.0071C36.0064 36.5739 36.371 37.0047 36.8317 37.2997C37.2924 37.5914 37.8161 37.7372 38.4027 37.7372C38.986 37.7372 39.508 37.5914 39.9688 37.2997C40.4328 37.0047 40.7973 36.5739 41.0625 36.0071C41.331 35.437 41.4652 34.7377 41.4652 33.9091ZM43.5968 28.8182H45.3418L48.0016 33.4467H48.111L50.7708 28.8182H52.5158L48.8219 35.0028V39H47.2907V35.0028L43.5968 28.8182Z" fill="white"/>
<path d="M91.7852 39V28.8182H95.4145C96.2033 28.8182 96.8579 28.9541 97.3783 29.2259C97.9019 29.4976 98.293 29.8738 98.5516 30.3544C98.8101 30.8317 98.9394 31.3835 98.9394 32.0099C98.9394 32.633 98.8084 33.1816 98.5466 33.6555C98.2881 34.1262 97.897 34.4924 97.3733 34.7543C96.8529 35.0161 96.1983 35.147 95.4095 35.147H92.6602V33.8246H95.2703C95.7675 33.8246 96.1718 33.7533 96.4834 33.6108C96.7983 33.4683 97.0286 33.2611 97.1744 32.9893C97.3203 32.7176 97.3932 32.3911 97.3932 32.0099C97.3932 31.6255 97.3186 31.2924 97.1695 31.0107C97.0236 30.7289 96.7933 30.5135 96.4784 30.3643C96.1669 30.2119 95.7575 30.1357 95.2504 30.1357H93.3215V39H91.7852ZM96.8115 34.4062L99.3271 39H97.5771L95.1112 34.4062H96.8115ZM109.653 33.9091C109.653 34.9962 109.454 35.9309 109.057 36.7131C108.659 37.492 108.114 38.0919 107.421 38.5128C106.731 38.9304 105.948 39.1392 105.069 39.1392C104.188 39.1392 103.401 38.9304 102.708 38.5128C102.018 38.0919 101.475 37.4903 101.077 36.7081C100.679 35.9259 100.481 34.9929 100.481 33.9091C100.481 32.822 100.679 31.889 101.077 31.1101C101.475 30.3279 102.018 29.728 102.708 29.3104C103.401 28.8894 104.188 28.679 105.069 28.679C105.948 28.679 106.731 28.8894 107.421 29.3104C108.114 29.728 108.659 30.3279 109.057 31.1101C109.454 31.889 109.653 32.822 109.653 33.9091ZM108.132 33.9091C108.132 33.0805 107.998 32.3828 107.729 31.8161C107.464 31.246 107.099 30.8151 106.635 30.5234C106.175 30.2285 105.653 30.081 105.069 30.081C104.483 30.081 103.959 30.2285 103.498 30.5234C103.038 30.8151 102.673 31.246 102.405 31.8161C102.139 32.3828 102.007 33.0805 102.007 33.9091C102.007 34.7377 102.139 35.437 102.405 36.0071C102.673 36.5739 103.038 37.0047 103.498 37.2997C103.959 37.5914 104.483 37.7372 105.069 37.7372C105.653 37.7372 106.175 37.5914 106.635 37.2997C107.099 37.0047 107.464 36.5739 107.729 36.0071C107.998 35.437 108.132 34.7377 108.132 33.9091ZM118.459 32.0348C118.363 31.7332 118.234 31.4631 118.071 31.2244C117.912 30.9825 117.722 30.777 117.5 30.608C117.277 30.4356 117.024 30.3047 116.739 30.2152C116.457 30.1257 116.147 30.081 115.809 30.081C115.236 30.081 114.719 30.2285 114.258 30.5234C113.797 30.8184 113.433 31.2509 113.164 31.821C112.899 32.3878 112.767 33.0821 112.767 33.9041C112.767 34.7294 112.901 35.4271 113.169 35.9972C113.438 36.5672 113.806 36.9998 114.273 37.2947C114.74 37.5897 115.272 37.7372 115.869 37.7372C116.422 37.7372 116.905 37.6245 117.316 37.3991C117.73 37.1738 118.05 36.8556 118.275 36.4446C118.504 36.0303 118.618 35.5431 118.618 34.983L119.016 35.0575H116.103V33.7898H120.105V34.9482C120.105 35.8033 119.922 36.5457 119.558 37.1754C119.197 37.8018 118.696 38.2857 118.056 38.6271C117.42 38.9685 116.691 39.1392 115.869 39.1392C114.947 39.1392 114.139 38.9271 113.443 38.5028C112.75 38.0786 112.21 37.477 111.822 36.6982C111.434 35.916 111.24 34.9879 111.24 33.9141C111.24 33.102 111.353 32.3729 111.578 31.7266C111.804 31.0803 112.12 30.5317 112.528 30.081C112.939 29.6269 113.421 29.2805 113.975 29.0419C114.532 28.8 115.14 28.679 115.799 28.679C116.349 28.679 116.862 28.7602 117.335 28.9226C117.813 29.085 118.237 29.3153 118.608 29.6136C118.983 29.9119 119.293 30.2666 119.538 30.6776C119.783 31.0852 119.949 31.5376 120.035 32.0348H118.459ZM122.055 39V28.8182H128.438V30.1406H123.591V33.2429H128.105V34.5604H123.591V37.6776H128.498V39H122.055ZM130.49 39V28.8182H134.12C134.908 28.8182 135.563 28.9541 136.083 29.2259C136.607 29.4976 136.998 29.8738 137.257 30.3544C137.515 30.8317 137.644 31.3835 137.644 32.0099C137.644 32.633 137.514 33.1816 137.252 33.6555C136.993 34.1262 136.602 34.4924 136.078 34.7543C135.558 35.0161 134.903 35.147 134.115 35.147H131.365V33.8246H133.975C134.473 33.8246 134.877 33.7533 135.188 33.6108C135.503 33.4683 135.734 33.2611 135.88 32.9893C136.025 32.7176 136.098 32.3911 136.098 32.0099C136.098 31.6255 136.024 31.2924 135.875 31.0107C135.729 30.7289 135.498 30.5135 135.183 30.3643C134.872 30.2119 134.463 30.1357 133.956 30.1357H132.027V39H130.49ZM135.517 34.4062L138.032 39H136.282L133.816 34.4062H135.517ZM140.672 28.8182V29.7727C140.672 30.0545 140.619 30.3511 140.513 30.6626C140.41 30.9709 140.264 31.2675 140.076 31.5526C139.887 31.8376 139.665 32.0829 139.409 32.2884L138.674 31.7614C138.869 31.4763 139.038 31.1731 139.181 30.8516C139.326 30.5301 139.399 30.1754 139.399 29.7876V28.8182H140.672ZM147.856 31.4929C147.803 31.0223 147.584 30.6577 147.2 30.3991C146.815 30.1373 146.331 30.0064 145.748 30.0064C145.331 30.0064 144.969 30.0727 144.664 30.2053C144.359 30.3345 144.122 30.5135 143.953 30.7422C143.788 30.9676 143.705 31.2244 143.705 31.5128C143.705 31.7547 143.761 31.9635 143.874 32.1392C143.99 32.3149 144.141 32.4624 144.326 32.5817C144.515 32.6977 144.717 32.7955 144.933 32.875C145.148 32.9512 145.355 33.0142 145.554 33.0639L146.549 33.3224C146.873 33.402 147.206 33.5097 147.548 33.6456C147.889 33.7815 148.206 33.9605 148.497 34.1825C148.789 34.4046 149.024 34.6797 149.203 35.0078C149.386 35.3359 149.477 35.7287 149.477 36.1861C149.477 36.7628 149.328 37.2749 149.029 37.7223C148.734 38.1697 148.305 38.5227 147.742 38.7812C147.182 39.0398 146.504 39.169 145.708 39.169C144.946 39.169 144.286 39.0481 143.73 38.8061C143.173 38.5642 142.737 38.2211 142.422 37.777C142.107 37.3295 141.933 36.7992 141.9 36.1861H143.441C143.471 36.554 143.59 36.8606 143.799 37.1058C144.011 37.3478 144.282 37.5284 144.61 37.6477C144.941 37.7637 145.304 37.8217 145.698 37.8217C146.133 37.8217 146.519 37.7538 146.857 37.6179C147.198 37.4787 147.467 37.2865 147.662 37.0412C147.858 36.7926 147.956 36.5026 147.956 36.1712C147.956 35.8696 147.869 35.6226 147.697 35.4304C147.528 35.2382 147.298 35.0791 147.006 34.9531C146.718 34.8272 146.391 34.7161 146.027 34.62L144.823 34.2919C144.008 34.0698 143.362 33.7434 142.884 33.3125C142.411 32.8816 142.174 32.3116 142.174 31.6023C142.174 31.0156 142.333 30.5036 142.651 30.0661C142.969 29.6286 143.4 29.2888 143.943 29.0469C144.487 28.8016 145.1 28.679 145.783 28.679C146.472 28.679 147.081 28.8 147.607 29.0419C148.138 29.2839 148.555 29.617 148.86 30.0412C149.165 30.4621 149.324 30.946 149.338 31.4929H147.856Z" fill="white"/>
<g clip-path="url(#clip0_1_96)">
<path d="M200.244 29.8592V29.7877H195V28.441H201.865V29.8353L197.348 38.8212H195.703L200.244 29.8592Z" fill="white"/>
<path d="M203.223 33.649C203.223 30.2644 204.641 28.298 207.025 28.298C209.408 28.298 210.839 30.2644 210.839 33.649C210.839 37.0336 209.432 39.0119 207.025 39.0119C204.618 39.0119 203.223 37.0455 203.223 33.649ZM209.277 33.649C209.277 31.0629 208.419 29.6327 207.025 29.6327C205.631 29.6327 204.784 31.0629 204.772 33.649C204.761 36.2351 205.619 37.6533 207.025 37.6533C208.431 37.6533 209.277 36.247 209.277 33.649Z" fill="white"/>
<path d="M212.018 28H216.714V28.7866H214.819V34.0542H213.913V28.7627H212.018V28Z" fill="white"/>
<path d="M217.739 28H218.656V30.6457H221.695V28H222.613V34.0542H221.695V31.3965H218.668V34.0542H217.751L217.739 28Z" fill="white"/>
</g>
<path d="M268.979 39H267.348L271.012 28.8182H272.787L276.451 39H274.82L271.942 30.6676H271.862L268.979 39ZM269.252 35.0128H274.542V36.3054H269.252V35.0128ZM286.139 28.8182V39H284.727L279.552 31.5327H279.458V39H277.921V28.8182H279.343L284.524 36.2955H284.618V28.8182H286.139ZM296.598 28.8182V39H295.186L290.011 31.5327H289.917V39H288.38V28.8182H289.802L294.983 36.2955H295.077V28.8182H296.598ZM300.376 28.8182V39H298.839V28.8182H300.376ZM303.503 28.8182L306.336 37.1108H306.451L309.285 28.8182H310.945L307.281 39H305.506L301.842 28.8182H303.503ZM312.415 39V28.8182H318.799V30.1406H313.952V33.2429H318.466V34.5604H313.952V37.6776H318.859V39H312.415ZM320.851 39V28.8182H324.48C325.269 28.8182 325.924 28.9541 326.444 29.2259C326.968 29.4976 327.359 29.8738 327.617 30.3544C327.876 30.8317 328.005 31.3835 328.005 32.0099C328.005 32.633 327.874 33.1816 327.612 33.6555C327.354 34.1262 326.963 34.4924 326.439 34.7543C325.919 35.0161 325.264 35.147 324.475 35.147H321.726V33.8246H324.336C324.833 33.8246 325.238 33.7533 325.549 33.6108C325.864 33.4683 326.094 33.2611 326.24 32.9893C326.386 32.7176 326.459 32.3911 326.459 32.0099C326.459 31.6255 326.384 31.2924 326.235 31.0107C326.089 30.7289 325.859 30.5135 325.544 30.3643C325.233 30.2119 324.823 30.1357 324.316 30.1357H322.387V39H320.851ZM325.877 34.4062L328.393 39H326.643L324.177 34.4062H325.877ZM335.428 31.4929C335.375 31.0223 335.156 30.6577 334.771 30.3991C334.387 30.1373 333.903 30.0064 333.32 30.0064C332.902 30.0064 332.541 30.0727 332.236 30.2053C331.931 30.3345 331.694 30.5135 331.525 30.7422C331.359 30.9676 331.276 31.2244 331.276 31.5128C331.276 31.7547 331.333 31.9635 331.445 32.1392C331.561 32.3149 331.712 32.4624 331.898 32.5817C332.087 32.6977 332.289 32.7955 332.504 32.875C332.72 32.9512 332.927 33.0142 333.126 33.0639L334.12 33.3224C334.445 33.402 334.778 33.5097 335.119 33.6456C335.461 33.7815 335.777 33.9605 336.069 34.1825C336.361 34.4046 336.596 34.6797 336.775 35.0078C336.957 35.3359 337.048 35.7287 337.048 36.1861C337.048 36.7628 336.899 37.2749 336.601 37.7223C336.306 38.1697 335.877 38.5227 335.313 38.7812C334.753 39.0398 334.075 39.169 333.28 39.169C332.518 39.169 331.858 39.0481 331.301 38.8061C330.744 38.5642 330.309 38.2211 329.994 37.777C329.679 37.3295 329.505 36.7992 329.472 36.1861H331.013C331.043 36.554 331.162 36.8606 331.371 37.1058C331.583 37.3478 331.853 37.5284 332.181 37.6477C332.513 37.7637 332.876 37.8217 333.27 37.8217C333.704 37.8217 334.09 37.7538 334.428 37.6179C334.77 37.4787 335.038 37.2865 335.234 37.0412C335.429 36.7926 335.527 36.5026 335.527 36.1712C335.527 35.8696 335.441 35.6226 335.269 35.4304C335.1 35.2382 334.869 35.0791 334.578 34.9531C334.289 34.8272 333.963 34.7161 333.598 34.62L332.395 34.2919C331.58 34.0698 330.933 33.7434 330.456 33.3125C329.982 32.8816 329.745 32.3116 329.745 31.6023C329.745 31.0156 329.904 30.5036 330.222 30.0661C330.541 29.6286 330.972 29.2888 331.515 29.0469C332.059 28.8016 332.672 28.679 333.355 28.679C334.044 28.679 334.652 28.8 335.179 29.0419C335.709 29.2839 336.127 29.617 336.432 30.0412C336.737 30.4621 336.896 30.946 336.909 31.4929H335.428ZM339.662 39H338.032L341.696 28.8182H343.471L347.135 39H345.504L342.625 30.6676H342.546L339.662 39ZM339.936 35.0128H345.225V36.3054H339.936V35.0128ZM348.605 39V28.8182H352.234C353.023 28.8182 353.678 28.9541 354.198 29.2259C354.722 29.4976 355.113 29.8738 355.371 30.3544C355.63 30.8317 355.759 31.3835 355.759 32.0099C355.759 32.633 355.628 33.1816 355.366 33.6555C355.108 34.1262 354.717 34.4924 354.193 34.7543C353.673 35.0161 353.018 35.147 352.229 35.147H349.48V33.8246H352.09C352.587 33.8246 352.992 33.7533 353.303 33.6108C353.618 33.4683 353.848 33.2611 353.994 32.9893C354.14 32.7176 354.213 32.3911 354.213 32.0099C354.213 31.6255 354.138 31.2924 353.989 31.0107C353.843 30.7289 353.613 30.5135 353.298 30.3643C352.987 30.2119 352.577 30.1357 352.07 30.1357H350.141V39H348.605ZM353.631 34.4062L356.147 39H354.397L351.931 34.4062H353.631ZM356.474 28.8182H358.219L360.879 33.4467H360.988L363.648 28.8182H365.393L361.699 35.0028V39H360.168V35.0028L356.474 28.8182Z" fill="white"/>
<defs>
<clipPath id="clip0_1_96">
<rect width="27.6132" height="11" fill="white" transform="translate(195 28)"/>
</clipPath>
</defs>
</svg>
